<?xml version="1.0" standalone="no"?>
<!DOCTYPE svg PUBLIC "-//W3C//DTD SVG 20010904//EN"
 "http://www.w3.org/TR/2001/REC-SVG-20010904/DTD/svg10.dtd">
<svg version="1.0" xmlns="http://www.w3.org/2000/svg"
 width="640.000000pt" height="640.000000pt" viewBox="0 0 640.000000 640.000000"
 preserveAspectRatio="xMidYMid meet">

<g transform="translate(0.000000,640.000000) scale(0.100000,-0.100000)"
fill="#000000" stroke="none">
<path d="M3120 4920 c-15 -16 -35 -30 -43 -30 -29 0 -48 -12 -62 -41 -22 -41
-18 -65 12 -89 34 -27 78 -21 110 15 19 21 23 22 34 9 7 -9 23 -14 36 -11 16
3 24 -1 28 -14 5 -14 13 -17 35 -13 22 5 29 2 34 -14 4 -10 4 -27 0 -36 -3 -9
-2 -16 4 -16 18 0 34 30 29 52 -3 13 1 32 9 42 34 47 -4 126 -62 126 -14 0
-39 11 -56 25 -40 34 -73 32 -108 -5z"/>
<path d="M5117 4224 c-11 -11 -9 -72 3 -79 6 -3 10 -16 11 -28 0 -15 2 -17 6
-7 13 35 73 56 73 25 0 -8 9 -24 19 -34 11 -11 21 -27 23 -37 5 -26 25 -28 33
-4 4 12 12 19 18 17 18 -6 20 -42 2 -57 -15 -13 -20 -41 -9 -53 13 -12 46 15
60 50 9 19 16 58 16 86 1 44 -2 53 -30 78 -18 16 -42 30 -55 30 -12 1 -40 3
-62 4 -22 1 -54 5 -70 9 -17 4 -33 4 -38 0z"/>
<path d="M1603 3849 c-23 -11 -45 -29 -48 -40 -4 -10 -10 -19 -15 -19 -5 0
-17 -14 -25 -31 -15 -28 -15 -35 5 -94 19 -58 58 -115 77 -115 4 0 16 12 26
25 14 19 15 29 7 44 -16 30 -12 52 10 58 23 6 25 30 5 58 -14 17 -13 20 7 32
13 7 44 12 69 13 31 0 55 7 70 19 28 23 22 31 -39 54 -57 22 -98 21 -149 -4z"/>
<path d="M1696 3433 c-4 -8 -2 -21 2 -27 12 -15 32 -99 32 -134 0 -27 37 -89
47 -79 2 3 -8 51 -22 107 -14 57 -25 111 -25 120 0 23 -27 33 -34 13z"/>
<path d="M5200 3210 c14 -4 47 -8 73 -9 31 -1 47 -5 45 -12 -2 -6 -43 -27 -92
-47 l-88 -35 -173 28 c-190 30 -200 29 -254 -29 -24 -25 -24 -27 -18 -173 5
-132 37 -414 53 -480 4 -14 9 -21 13 -15 3 5 16 12 29 16 16 6 22 3 22 -8 0
-9 4 -16 9 -16 22 0 45 408 28 498 -8 41 -8 42 17 42 21 0 26 -6 30 -32 10
-64 26 -344 26 -449 0 -58 3 -108 6 -112 4 -3 13 0 21 8 19 19 43 19 43 0 0
-8 4 -15 9 -15 4 0 22 87 40 193 31 192 40 343 22 390 l-9 23 109 -4 c237 -10
330 38 315 164 -10 89 0 84 -160 83 -86 -1 -131 -4 -116 -9z"/>
<path d="M1736 3026 c-10 -37 -6 -70 13 -105 l18 -34 17 25 c12 18 16 42 14
74 -3 42 -6 48 -30 55 -22 6 -27 3 -32 -15z"/>
<path d="M1469 2755 c-30 -62 -31 -68 -26 -157 9 -166 -11 -494 -34 -569 -19
-61 -37 -240 -34 -344 0 -22 2 -95 3 -162 l2 -123 45 0 c25 0 45 4 45 10 0 5
18 125 40 267 35 228 136 693 150 693 7 0 103 -322 101 -340 -17 -205 -14
-236 41 -488 l32 -143 40 3 41 3 1 310 c1 280 -2 335 -28 570 -15 143 -31 313
-35 378 -5 103 -8 117 -22 111 -71 -29 -164 -20 -269 26 -24 11 -48 20 -53 20
-4 0 -22 -29 -40 -65z"/>
<path d="M4735 2391 c-3 -5 -28 -17 -55 -26 -28 -9 -50 -23 -50 -30 0 -34 172
-29 190 5 16 30 3 47 -30 42 -18 -3 -30 0 -30 7 0 13 -17 15 -25 2z"/>
<path d="M4930 2343 c0 -5 -27 -21 -60 -36 -33 -14 -60 -30 -60 -35 0 -22 72
-28 150 -11 49 11 51 12 48 42 -3 27 -7 31 -26 29 -13 -2 -30 2 -38 8 -8 7
-14 8 -14 3z"/>
<path d="M1390 1356 c0 -7 -3 -28 -6 -45 l-6 -31 51 0 c28 0 51 3 51 7 0 3 -8
24 -17 44 -15 31 -23 39 -45 39 -17 0 -28 -5 -28 -14z"/>
<path d="M1883 1349 c-13 -5 -23 -17 -23 -27 0 -16 10 -20 60 -25 32 -4 69 -3
81 2 21 7 20 8 -10 14 -18 4 -45 15 -59 26 -20 13 -33 16 -49 10z"/>
</g>
</svg>
